<mxfile host="app.diagrams.net" modified="2021-07-27T21:19:06.857Z" agent="5.0 (Windows NT 10.0; Win64; x64) AppleWebKit/537.36 (KHTML, like Gecko) Chrome/92.0.4515.107 Safari/537.36" etag="6QkyjkKXIvqAWsvmXASZ" version="14.9.2" type="github">
  <diagram id="5Vw8lEADLM701qHRzyul" name="Page-1">
    <mxGraphModel dx="703" dy="413" grid="1" gridSize="10" guides="1" tooltips="1" connect="1" arrows="1" fold="1" page="1" pageScale="1" pageWidth="827" pageHeight="1169" math="0" shadow="0">
      <root>
        <mxCell id="0" />
        <mxCell id="1" parent="0" />
        <mxCell id="OXgOo7KW0jeFq5yCFP7A-13" value="Orientador&lt;br&gt;" style="shape=umlActor;verticalLabelPosition=bottom;verticalAlign=top;html=1;outlineConnect=0;" parent="1" vertex="1">
          <mxGeometry x="40" y="340" width="30" height="60" as="geometry" />
        </mxCell>
        <mxCell id="C5I_iiXGgy-n2vgdW6JL-2" style="edgeStyle=orthogonalEdgeStyle;rounded=0;orthogonalLoop=1;jettySize=auto;html=1;exitX=1;exitY=0.5;exitDx=0;exitDy=0;entryX=0;entryY=0.5;entryDx=0;entryDy=0;endArrow=none;endFill=0;" edge="1" parent="1" source="OXgOo7KW0jeFq5yCFP7A-14" target="OXgOo7KW0jeFq5yCFP7A-20">
          <mxGeometry relative="1" as="geometry" />
        </mxCell>
        <mxCell id="OXgOo7KW0jeFq5yCFP7A-14" value="Apresenta todas as matérias que possuem monitores" style="ellipse;whiteSpace=wrap;html=1;" parent="1" vertex="1">
          <mxGeometry x="110" y="325" width="130" height="90" as="geometry" />
        </mxCell>
        <mxCell id="OXgOo7KW0jeFq5yCFP7A-16" value="" style="endArrow=none;html=1;exitX=0;exitY=0.5;exitDx=0;exitDy=0;" parent="1" source="OXgOo7KW0jeFq5yCFP7A-14" edge="1">
          <mxGeometry width="50" height="50" relative="1" as="geometry">
            <mxPoint x="160" y="370" as="sourcePoint" />
            <mxPoint x="80" y="370" as="targetPoint" />
          </mxGeometry>
        </mxCell>
        <mxCell id="C5I_iiXGgy-n2vgdW6JL-6" style="edgeStyle=orthogonalEdgeStyle;rounded=0;orthogonalLoop=1;jettySize=auto;html=1;exitX=1;exitY=0.5;exitDx=0;exitDy=0;entryX=0;entryY=0.5;entryDx=0;entryDy=0;endArrow=none;endFill=0;" edge="1" parent="1" source="OXgOo7KW0jeFq5yCFP7A-20" target="C5I_iiXGgy-n2vgdW6JL-5">
          <mxGeometry relative="1" as="geometry" />
        </mxCell>
        <mxCell id="OXgOo7KW0jeFq5yCFP7A-20" value="Exibe uma tabela com as informações de cada atendimento realizado" style="ellipse;whiteSpace=wrap;html=1;" parent="1" vertex="1">
          <mxGeometry x="283.5" y="324.38" width="130" height="91.25" as="geometry" />
        </mxCell>
        <mxCell id="C5I_iiXGgy-n2vgdW6JL-5" value="Disponibiliza a tabela no formato .xlsx" style="ellipse;whiteSpace=wrap;html=1;" vertex="1" parent="1">
          <mxGeometry x="460" y="325" width="130" height="91.25" as="geometry" />
        </mxCell>
      </root>
    </mxGraphModel>
  </diagram>
</mxfile>
